<?xml version="1.0" standalone="no"?>
<!DOCTYPE svg PUBLIC "-//W3C//DTD SVG 20010904//EN"
 "http://www.w3.org/TR/2001/REC-SVG-20010904/DTD/svg10.dtd">
<svg version="1.0" xmlns="http://www.w3.org/2000/svg"
 width="612.000000pt" height="192.000000pt" viewBox="0 0 612.000000 192.000000"
 preserveAspectRatio="xMidYMid meet">

<g transform="translate(0.000000,192.000000) scale(0.100000,-0.100000)"
fill="#000000" stroke="none">
<path d="M2347 1650 c-4 -96 -12 -180 -18 -186 -6 -7 -10 -50 -10 -96 -1 -168
-11 -343 -20 -352 -5 -6 -9 -58 -9 -117 0 -61 -4 -111 -10 -114 -6 -4 -10 -63
-10 -145 0 -82 -4 -141 -10 -145 -6 -3 -10 -50 -10 -106 0 -76 -3 -100 -12
-97 -10 4 -14 58 -16 219 -1 122 -7 218 -12 223 -6 6 -10 25 -10 42 0 18 -4
36 -10 39 -5 3 -10 17 -10 31 0 22 -4 24 -45 24 l-45 0 0 -119 c0 -74 -4 -122
-11 -126 -6 -4 -9 -24 -8 -46 2 -21 0 -41 -4 -45 -4 -4 -7 -20 -7 -36 0 -15
-4 -28 -8 -28 -5 0 -12 59 -15 132 -3 72 -10 134 -16 137 -5 4 -14 18 -20 31
-6 16 -10 19 -10 8 -1 -9 -8 -24 -17 -33 -12 -12 -17 -46 -21 -155 -3 -77 -9
-140 -12 -140 -20 0 -31 31 -31 87 0 61 -1 63 -26 63 -24 0 -25 1 -18 47 l7
46 -43 -34 c-52 -42 -57 -56 -55 -141 2 -38 -1 -68 -6 -68 -5 0 -9 -11 -9 -25
0 -14 -4 -25 -9 -25 -5 0 -12 -12 -14 -27 -2 -16 -5 1 -7 37 -1 36 -5 128 -9
205 l-6 140 -42 3 c-41 3 -43 5 -44 35 l-2 32 -4 -30 c-3 -16 -11 -34 -19 -38
-11 -6 -14 -45 -14 -203 0 -163 -3 -198 -15 -211 -9 -8 -19 -13 -22 -10 -3 4
-8 149 -11 324 -3 175 -8 307 -12 293 -4 -18 -17 -27 -50 -37 -25 -7 -51 -21
-57 -30 -10 -12 -13 -75 -13 -229 0 -159 -3 -213 -12 -216 -7 -3 -15 -31 -19
-64 -5 -49 -7 -37 -9 66 -6 206 -11 230 -42 230 -14 0 -18 -5 -14 -15 4 -12
-3 -14 -45 -11 -27 2 -52 -1 -56 -7 -8 -13 -9 -33 -12 -257 l-3 -185 -13 80
c-8 44 -14 97 -14 117 -1 26 -7 41 -23 52 -12 9 -25 16 -29 16 -11 0 -49 -37
-49 -49 0 -6 -7 -11 -15 -11 -25 0 -36 48 -31 137 4 56 2 83 -5 83 -7 0 -9 10
-5 26 4 14 3 42 -1 62 l-7 37 -12 -40 c-7 -22 -13 -92 -14 -155 -1 -63 -7
-153 -14 -200 -13 -82 -13 -77 -15 178 -1 271 -7 317 -38 286 -19 -19 -59 -18
-67 1 -7 19 -36 19 -36 0 0 -8 -4 -15 -10 -15 -6 0 -10 -53 -10 -139 0 -83 -4
-142 -10 -146 -6 -3 -10 -31 -10 -61 0 -52 -10 -68 -27 -41 -4 6 -9 39 -10 72
-1 33 -2 68 -2 78 -1 9 -7 16 -13 15 -8 -2 -14 10 -16 29 -2 22 -13 39 -37 57
-18 14 -37 26 -40 26 -3 0 -22 -12 -41 -26 -25 -19 -34 -34 -34 -55 0 -23 -5
-29 -21 -29 -15 0 -19 -4 -13 -13 14 -18 9 -316 -5 -330 -8 -8 -11 -4 -11 18
0 52 -10 74 -33 72 -12 0 -25 -5 -28 -10 -3 -5 -9 10 -13 32 -5 35 -10 41 -30
41 -15 0 -26 -7 -29 -17 -4 -15 -5 -15 -6 2 -2 27 -23 53 -52 64 -32 12 -76
-11 -91 -47 -6 -15 -12 -22 -15 -14 -3 6 -16 12 -29 12 -24 0 -29 -11 -26 -52
1 -12 -6 -16 -28 -16 -17 1 -33 -2 -37 -6 -4 -3 -9 -47 -11 -96 l-4 -90 -34 0
-34 0 0 -65 0 -65 3060 0 3060 0 0 65 0 65 -45 0 -45 0 7 43 c17 90 8 208 -21
287 -15 42 -24 85 -21 98 4 16 1 22 -12 22 -10 1 -30 19 -46 41 -16 24 -32 37
-39 33 -6 -4 -8 -3 -4 4 3 6 -5 23 -19 39 l-24 28 -1 -77 c0 -56 -4 -81 -16
-92 -8 -9 -11 -16 -5 -16 7 0 11 -52 10 -157 -1 -157 -9 -172 -25 -45 -6 48
-13 63 -50 101 -44 45 -44 45 -64 25 -56 -51 -70 -68 -70 -80 0 -8 -5 -14 -10
-14 -7 0 -10 22 -10 53 2 105 -17 249 -34 244 -12 -4 -34 -164 -35 -264 -1
-35 -5 -63 -11 -63 -6 0 -10 68 -10 178 1 97 -4 201 -10 231 -5 29 -10 56 -10
58 0 2 -4 2 -9 -1 -5 -3 -20 4 -35 15 l-26 20 -26 -20 c-15 -11 -30 -18 -35
-15 -5 3 -9 3 -9 1 0 -2 -5 -28 -10 -58 -6 -29 -11 -149 -11 -266 0 -117 -5
-215 -10 -219 -5 -3 -9 31 -9 79 0 111 -19 291 -31 295 -5 2 -9 12 -9 21 0 19
-29 51 -46 51 -14 0 -44 -38 -44 -55 0 -8 -4 -15 -10 -15 -6 0 -10 -35 -10
-85 0 -47 -4 -85 -9 -85 -5 0 -12 91 -15 203 -9 267 -10 273 -48 286 -17 6
-42 11 -54 11 -16 0 -24 6 -25 18 -5 53 -18 -146 -24 -361 -6 -175 -11 -247
-19 -244 -13 4 -24 70 -25 152 -2 84 -9 107 -32 100 -19 -6 -19 -7 -23 68 -1
10 -9 23 -18 28 -22 12 -51 0 -43 -19 8 -22 -14 -81 -35 -92 -16 -8 -19 -30
-25 -170 -7 -147 -14 -184 -33 -165 -4 4 -7 122 -8 263 -1 257 -5 292 -38 314
-24 17 -65 8 -85 -18 -20 -25 -21 -39 -21 -266 0 -187 -3 -239 -12 -236 -9 3
-15 47 -21 144 -6 101 -13 150 -27 179 -10 22 -22 49 -26 60 -7 19 -8 18 -13
-5 -3 -14 -13 -39 -23 -55 -10 -19 -19 -69 -23 -133 -4 -56 -11 -102 -16 -102
-5 0 -16 14 -24 30 -12 24 -16 60 -14 160 l1 130 -51 59 c-28 32 -57 64 -66
71 -8 7 -15 27 -15 44 0 17 -5 38 -11 46 -7 11 -8 -19 -3 -100 8 -149 5 -462
-6 -474 -5 -5 -16 -6 -24 -3 -14 6 -16 34 -16 206 0 122 -4 202 -10 206 -5 3
-10 28 -10 56 0 27 5 49 10 49 6 0 9 43 9 113 -1 65 -4 97 -8 75 -4 -27 -24
-57 -71 -110 l-65 -72 -5 -261 c-4 -222 -7 -260 -20 -260 -12 0 -15 21 -16
123 -1 67 -4 125 -8 129 -3 3 -6 14 -6 23 0 10 -7 23 -15 30 -8 7 -15 21 -15
31 0 11 -4 19 -10 19 -5 0 -10 -4 -10 -10 0 -20 -2 -25 -14 -40 -26 -30 -31
-58 -31 -179 0 -90 -3 -125 -12 -128 -10 -4 -13 18 -13 86 0 50 -4 91 -9 91
-4 0 -12 57 -16 127 -6 111 -9 129 -27 145 -51 44 -87 9 -99 -99 -5 -43 -9
-96 -8 -118 1 -59 -2 -65 -12 -20 -4 22 -8 87 -9 145 -1 101 -13 247 -22 255
-7 8 -123 -27 -130 -38 -4 -7 -8 -118 -8 -248 0 -188 -3 -239 -14 -248 -14
-12 -17 7 -33 228 -4 55 -11 90 -22 102 -19 24 -81 26 -81 4 0 -8 -4 -15 -8
-15 -11 0 -24 -169 -26 -330 -2 -92 -5 -115 -17 -115 -11 0 -15 25 -20 120 -5
112 -26 226 -36 198 -3 -7 -16 -13 -29 -13 -17 0 -24 -6 -24 -20 0 -11 -7 -20
-15 -20 -9 0 -12 6 -9 15 9 22 -9 18 -24 -6 -16 -24 -21 -82 -22 -239 -1 -117
-16 -129 -19 -16 -1 32 -5 64 -9 70 -4 6 -10 79 -14 161 -7 169 -15 223 -34
242 -16 16 -31 17 -37 1 -4 -10 -8 -9 -17 2 -9 11 -13 12 -17 3 -2 -7 -11 -13
-18 -13 -17 0 -24 -46 -35 -225 -10 -171 -19 -237 -30 -230 -4 2 -8 71 -9 152
-1 119 -5 154 -18 181 -23 41 -44 40 -65 -4 -15 -29 -18 -63 -18 -207 0 -116
-3 -167 -10 -157 -8 12 -12 13 -19 2 -5 -8 -10 90 -13 235 -5 236 -6 250 -29
298 -13 28 -28 50 -34 50 -5 0 -21 -22 -34 -49 -23 -46 -25 -61 -31 -295 -4
-135 -7 -232 -8 -214 -1 17 -6 34 -11 37 -5 3 -12 54 -15 113 -10 168 -11 173
-46 170 -17 -1 -30 -8 -30 -14 0 -7 -11 -13 -25 -13 -24 0 -25 -2 -26 -67 -2
-107 -13 -186 -26 -191 -10 -3 -13 27 -13 127 0 81 -4 131 -10 131 -6 0 -10
45 -10 115 0 70 -4 115 -10 115 -6 0 -10 45 -10 114 0 63 -4 117 -9 120 -4 3
-12 88 -16 188 -4 101 -12 257 -19 348 l-12 165 -7 -175z m-1350 -1022 c-3 -7
-5 -2 -5 12 0 14 2 19 5 13 2 -7 2 -19 0 -25z m4902 -17 c22 -42 20 -51 -10
-44 -15 4 -19 14 -19 44 0 22 2 39 5 39 2 0 13 -17 24 -39z m51 -33 c0 -20
-18 -4 -33 30 l-17 37 25 -30 c14 -16 25 -33 25 -37z m-3023 -275 c-3 -10 -5
-2 -5 17 0 19 2 27 5 18 2 -10 2 -26 0 -35z m2600 -25 c-3 -7 -5 -2 -5 12 0
14 2 19 5 13 2 -7 2 -19 0 -25z"/>
<path d="M4242 1020 c0 -19 2 -27 5 -17 2 9 2 25 0 35 -3 9 -5 1 -5 -18z"/>
<path d="M161 441 c-15 -28 -14 -31 14 -31 28 0 33 21 11 39 -12 10 -17 8 -25
-8z"/>
<path d="M384 444 c-4 -11 -9 -22 -11 -26 -2 -5 7 -8 21 -8 29 0 35 20 11 40
-12 10 -16 9 -21 -6z"/>
<path d="M450 385 c-17 -21 -6 -45 18 -38 14 3 18 11 15 24 -7 27 -19 31 -33
14z"/>
<path d="M87 370 c-4 -16 0 -20 20 -20 18 0 24 5 21 17 -5 26 -34 28 -41 3z"/>
</g>
</svg>
